<svg id="logo-dark" width="280" height="60" viewBox="0 0 280 60" xmlns="http://www.w3.org/2000/svg">
                        <rect x="0" y="6" width="48" height="48" rx="10" fill="#FFFFFF"/>
                        <path d="M24 18L32 26L28 30L24 26L20 30L16 26L24 18Z" fill="#0F172A"/>
                        <path d="M16 30L20 34L24 30L28 34L32 30V38C32 40.2091 30.2091 42 28 42H20C17.7909 42 16 40.2091 16 38V30Z" fill="#334155"/>
                        <path d="M20 34L24 38L28 34L24 30L20 34Z" fill="#475569" fill-opacity="0.6"/>
                        <text x="60" y="33" font-family="Arial, sans-serif" font-size="24" font-weight="bold" fill="#FFFFFF">AltsManager</text>
                        <text x="60" y="48" font-family="Arial, sans-serif" font-size="11" fill="#94A3B8">Keep Track of Your Alts</text>
                    </svg>